# xmcd CD database file
#
# Track frame offsets:
#	183
#	17560
#	26170
#	45315
#	63425
#	77068
#	96318
#	113158
#	127933
#	137103
#	148913
#	163143
#	177935
#	191875
#	202688
#	216328
#
# Disc length: 3070 seconds
#
# Revision: 12
# Processed by: cddbd v1.5.2PL0 Copyright (c) Steve Scherf et al.
# Submitted via: CDex 1.51
#
DISCID=e50bfc10
DTITLE=Fritz Kreisler - My Favorite Kreisler  (Itzhak Perlman, violin - Samuel Sanders, piano)
DYEAR=1987
DGENRE=Classique
TTITLE0=Caprice viennois, Op.2
TTITLE1=Schön Rosmarin
TTITLE2=Slavonic Dance in E minor  (Dvorák, Op.46, n°2, arr. Kreisler)
TTITLE3=Romance, Op.4
TTITLE4=Songs my mother taught me  (Dvorák, Op.55, n°4, from 'Gypsy Melodies')
TTITLE5=Moto perpetuo  (Paganini, Op.11, arr. Kreisler)
TTITLE6=Tempo di Minuetto  (In the style of Pugnani)
TTITLE7=Fugue in A major  (Tartini, arr. Kreisler)
TTITLE8=La Chasse  (Caprice) (In the style of Cartier)
TTITLE9=Preghiera  (In the style of Martini)
TTITLE10=Marguerite  (Daisies) (Rachmaninov, Op.38, n°3, arr. Kreisler)
TTITLE11=Liebesleid
TTITLE12=Melodie  (Gluck, arr. Kreisler)
TTITLE13=Viennese Melody  (Gärtner, arr. Kreisler)
TTITLE14=Mazurka A minor  (Chopin, Op.67, n°4 Posth., arr. Kreisler)
TTITLE15=Liebesfreud
EXTD=YEAR: 1987
EXTT0=
EXTT1=
EXTT2=
EXTT3=
EXTT4=
EXTT5=
EXTT6=
EXTT7=
EXTT8=
EXTT9=
EXTT10=
EXTT11=
EXTT12=
EXTT13=
EXTT14=
EXTT15=
PLAYORDER=
